<?xml version="1.0" encoding="UTF-8" standalone="no"?>
<svg width="270px" height="270px" viewBox="0 0 270 270" version="1.1" xmlns="http://www.w3.org/2000/svg" xmlns:xlink="http://www.w3.org/1999/xlink" xmlns:sketch="http://www.bohemiancoding.com/sketch/ns">
    <title>Slice 1</title>
    <description>Created with Sketch (http://www.bohemiancoding.com/sketch)</description>
    <defs></defs>
    <g id="Page-1" stroke="none" stroke-width="1" fill="none" fill-rule="evenodd" sketch:type="MSPage">
        <circle id="Oval-1" fill="#D8D8D8" sketch:type="MSShapeGroup" cx="106.5" cy="139.5" r="100.5"></circle>
        <path d="M178,211 L178,69 L266,140 L178,211 Z" id="Triangle-1" fill="#D8D8D8" sketch:type="MSShapeGroup"></path>
        <g id="Oval-2-+-1" sketch:type="MSLayerGroup" transform="translate(13.000000, 14.000000)">
            <path d="M32.5,65 C50.4492553,65 65,50.4492553 65,32.5 C65,14.5507447 50.4492553,0 32.5,0 C14.5507447,0 0,14.5507447 0,32.5 C0,50.4492553 14.5507447,65 32.5,65 Z" id="Oval-2" fill="#35AEDB" sketch:type="MSShapeGroup"></path>
            <text id="1" sketch:type="MSTextLayer" font-family="Helvetica Neue" font-size="38.8965517" font-weight="normal" fill="#FFFFFF">
                <tspan x="21" y="47">1</tspan>
            </text>
        </g>
        <g id="plugin" sketch:type="MSLayerGroup" transform="translate(46.000000, 79.000000)">
            <path d="M62.2509413,88.1442857 L78.9367603,71.6670387 C80.3544132,70.2671073 80.3544132,67.9970493 78.9367603,66.597117 C77.5191073,65.1971847 75.2203152,65.1971847 73.8026623,66.597117 L57.1168433,83.074364 L40.4310234,66.597117 L57.1168433,50.119871 C58.5344963,48.7199386 58.5344963,46.4498806 57.1168433,45.0499492 C55.6991903,43.6500169 53.4003973,43.6500169 51.9827453,45.0499492 L35.2969254,61.5271953 L29.5210649,55.8235331 L19.2528689,65.9633766 C9.93833101,75.1614826 8.78444206,89.3648688 15.7886356,99.8038418 L0,115.395118 L7.70114728,123 L23.4897835,107.408723 C34.0608918,114.325361 48.4440679,113.185895 57.7586058,103.987787 L68.0268018,93.8479505 L62.2509413,88.1442857 L62.2509413,88.1442857 Z" id="path3" fill="#FFFFFF" sketch:type="MSShapeGroup"></path>
            <path d="M102.75472,56.8867896 C112.06559,47.7128463 113.219026,33.5467714 106.217586,23.1352245 L122,7.58490421 L114.301888,0 L98.5194736,15.5503185 C87.9525255,8.65185093 73.5750133,9.78831545 64.2641433,18.9622623 L54,29.0754691 C91.6519954,66.1737563 54.2993954,29.3704733 92.4905584,67 L102.75472,56.8867896 Z" id="path3-7" fill="#4A4A4A" sketch:type="MSShapeGroup"></path>
        </g>
    </g>
</svg>