<?xml version="1.0" encoding="UTF-8" standalone="no"?>
<svg width="270px" height="270px" viewBox="0 0 270 270" version="1.1" xmlns="http://www.w3.org/2000/svg" xmlns:xlink="http://www.w3.org/1999/xlink" xmlns:sketch="http://www.bohemiancoding.com/sketch/ns">
    <title>Slice 1</title>
    <description>Created with Sketch (http://www.bohemiancoding.com/sketch)</description>
    <defs></defs>
    <g id="Page-1" stroke="none" stroke-width="1" fill="none" fill-rule="evenodd" sketch:type="MSPage">
        <circle id="Oval-1" fill="#D8D8D8" sketch:type="MSShapeGroup" cx="106.5" cy="139.5" r="100.5"></circle>
        <path d="M178,211 L178,69 L266,140 L178,211 Z" id="Triangle-1" fill="#D8D8D8" sketch:type="MSShapeGroup"></path>
        <g id="Oval-2-+-1" sketch:type="MSLayerGroup" transform="translate(13.000000, 14.000000)">
            <path d="M32.5,65 C50.4492553,65 65,50.4492553 65,32.5 C65,14.5507447 50.4492553,0 32.5,0 C14.5507447,0 0,14.5507447 0,32.5 C0,50.4492553 14.5507447,65 32.5,65 Z" id="Oval-2" fill="#35AEDB" sketch:type="MSShapeGroup"></path>
            <text id="2" sketch:type="MSTextLayer" font-family="Helvetica Neue" font-size="38.8965517" font-weight="normal" fill="#FFFFFF">
                <tspan x="21" y="47">2</tspan>
            </text>
        </g>
        <g id="Your_Icon" sketch:type="MSLayerGroup" transform="translate(58.000000, 80.000000)">
            <path d="M66.252,18.980551 L61.3692,21.265898 C58.8228,17.5573265 55.5264,14.5784286 51.7716,12.4447959 L53.7372,7.03365306 C54.6576,4.49063265 53.3484,1.67910204 50.8128,0.753163265 C48.2808,-0.17277551 45.4788,1.13967347 44.556,3.68269388 L42.5952,9.09142857 C38.352,8.30757143 33.9156,8.46410204 29.5896,9.6597551 L27.312,4.76034694 C26.172,2.30522449 23.2692,1.24442857 20.8224,2.3895102 C18.3792,3.53579592 17.3184,6.44606122 18.462,8.90118367 L20.7372,13.8005918 C17.046,16.3556531 14.0748,19.6656735 11.946,23.4308367 L6.5556,21.4609592 C4.0212,20.5350204 1.2216,21.8510816 0.2976,24.392898 C-0.6276,26.9335102 0.6816,29.7450408 3.2148,30.6709796 L8.6052,32.6432653 C7.824,36.8984898 7.9776,41.3475714 9.1692,45.6906939 L4.2864,47.9736327 C1.8456,49.115102 0.786,52.0325918 1.926,54.4853061 C3.066,56.9404286 5.9712,57.9976122 8.4156,56.8561429 L13.2984,54.5707959 C15.8472,58.2793673 19.1412,61.2558571 22.896,63.391898 L20.9628,68.7223673 C20.0424,71.2653878 21.3504,74.0793265 23.8824,75.000449 C26.4144,75.9287959 29.2188,74.6163469 30.1416,72.0733265 L32.0748,66.7452653 C36.3156,67.5291224 40.7544,67.3725918 45.078,66.1769388 L47.3556,71.0763469 C48.4932,73.5290612 51.4008,74.5886531 53.8452,73.4483878 C56.292,72.302102 57.3456,69.3870204 56.2056,66.9343061 L53.9304,62.0373061 C57.624,59.4822449 60.5952,56.1710204 62.7216,52.4046531 L68.1144,54.3745306 C70.6488,55.2980612 73.4508,53.9880204 74.3736,51.445 C75.294,48.9019796 73.9848,46.090449 71.4564,45.1645102 L66.0636,43.1922245 C66.8448,38.937 66.6888,34.4915306 65.4972,30.1472041 L70.38,27.8642653 C72.8244,26.7179796 73.8804,23.802898 72.744,21.3525918 C71.6004,18.8938571 68.6976,17.8354694 66.252,18.980551 L66.252,18.980551 Z M45.5652,55.6255714 C35.8308,60.1794082 24.222,55.9410408 19.6836,46.1747347 C15.1476,36.4132449 19.374,24.7613469 29.1024,20.2099184 C38.8368,15.6536735 50.4456,19.8968571 54.9816,29.6607551 C59.5236,39.4258571 55.2972,51.0705306 45.5652,55.6255714 L45.5652,55.6255714 Z" id="Shape" fill="#FFFFFF" sketch:type="MSShapeGroup"></path>
            <path d="M72.3084,82.0503469 L69.0588,83.5723061 C67.3644,81.1027347 65.1696,79.1184082 62.6676,77.7 L63.978,74.0961837 C64.5888,72.4032449 63.7188,70.532102 62.0292,69.9144082 C60.3444,69.2967143 58.4796,70.1720816 57.864,71.8650204 L56.5572,75.4664286 C53.7324,74.9450612 50.7804,75.0498163 47.9004,75.8457143 L46.3848,72.5826531 C45.6252,70.9487143 43.692,70.2431224 42.0636,71.002898 C40.4376,71.7674898 39.732,73.7048571 40.4916,75.3387959 L42.0072,78.6018571 C39.5484,80.3044286 37.5708,82.5066939 36.1548,85.0123878 L32.5632,83.6999388 C30.876,83.0846531 29.0136,83.9624286 28.398,85.6517551 C27.7824,87.3446939 28.6548,89.2158367 30.3384,89.8311224 L33.93,91.1435714 C33.4104,93.9779796 33.51,96.9424286 34.3032,99.8298163 L31.0536,101.351776 C29.4276,102.113959 28.722,104.053735 29.4816,105.687673 C30.2412,107.321612 32.1744,108.024796 33.8028,107.26502 L37.0524,105.744265 C38.7492,108.213837 40.944,110.195755 43.4436,111.61898 L42.1548,115.166204 C41.5416,116.859143 42.414,118.732694 44.1,119.34798 C45.7848,119.965673 47.652,119.090306 48.2652,117.398571 L49.554,113.851347 C52.3764,114.372714 55.3308,114.267959 58.2108,113.472061 L59.724,116.735122 C60.4836,118.366653 62.4192,119.074653 64.0452,118.312469 C65.6736,117.550286 66.3768,115.61051 65.6172,113.976571 L64.104,110.715918 C66.5628,109.013347 68.5404,106.811082 69.9564,104.305388 L73.5456,105.61302 C75.2328,106.230714 77.1,105.355347 77.7156,103.66602 C78.3264,101.973082 77.4564,100.099531 75.7716,99.4818367 L72.18,98.1681837 C72.6996,95.3361837 72.5976,92.3753469 71.8044,89.4867551 L75.054,87.9635918 C76.6824,87.2014082 77.3856,85.2616327 76.626,83.630102 C75.8712,81.9937551 73.9392,81.2881633 72.3084,82.0503469 L72.3084,82.0503469 Z M58.5396,106.446245 C52.0596,109.479327 44.3304,106.656959 41.3076,100.154918 C38.2872,93.6528776 41.1,85.8973878 47.58,82.8679184 C54.06,79.8348367 61.7868,82.6596122 64.8072,89.1592449 C67.8312,95.6612857 65.016,103.414367 58.5396,106.446245 L58.5396,106.446245 Z" id="Shape" fill="#4A4A4A" sketch:type="MSShapeGroup"></path>
            <path d="M111.144,37.433102 C109.4496,34.9659388 107.2548,32.9816122 104.7552,31.5607959 L106.0644,27.9569796 C106.6776,26.266449 105.8052,24.392898 104.1156,23.7776122 C102.4308,23.1599184 100.566,24.0328776 99.9504,25.7246122 L98.6436,29.3284286 C95.8188,28.8046531 92.8668,28.9094082 89.9868,29.7053061 L88.4712,26.4422449 C87.7116,24.8107143 85.7808,24.1027143 84.1524,24.864898 C82.524,25.6270816 81.8184,27.5668571 82.578,29.2007959 L84.0936,32.461449 C81.6348,34.1640204 79.6596,36.3662857 78.2412,38.8719796 L74.652,37.5619388 C72.9648,36.9466531 71.1,37.8220204 70.4868,39.5137551 C69.8688,41.2042857 70.7412,43.0778367 72.4284,43.6931224 L76.0176,45.0055714 C75.498,47.8399796 75.6,50.8020204 76.3932,53.6918163 L73.1412,55.2101633 C71.5176,55.9723469 70.8096,57.9121224 71.5716,59.5460612 C72.3288,61.18 74.2644,61.8855918 75.8928,61.1234082 L79.14,59.6050612 C80.8368,62.0722245 83.0316,64.0541429 85.5312,65.4773673 L84.2448,69.0245918 C83.6292,70.7199388 84.5016,72.5910816 86.1888,73.2063673 C87.8736,73.8240612 89.7408,72.9486939 90.3564,71.2569592 L91.6428,67.7097347 C94.4652,68.231102 97.4196,68.1287551 100.2996,67.3328571 L101.8164,70.5935102 C102.5736,72.227449 104.5092,72.9330408 106.1352,72.1708571 C107.7636,71.4086735 108.4668,69.468898 107.7072,67.8373673 L106.194,64.5767143 C108.6528,62.8741429 110.6304,60.6694694 112.0464,58.1637755 L115.6356,59.4738163 C117.3252,60.0915102 119.19,59.2161429 119.8056,57.5244082 C120.4188,55.8314694 119.5464,53.9603265 117.8616,53.3426327 L114.27,52.0289796 C114.7896,49.1945714 114.6876,46.2361429 113.8944,43.3451429 L117.1464,41.8243878 C118.7724,41.0622041 119.4756,39.1224286 118.716,37.490898 C117.9552,35.8557551 116.0244,35.1501633 114.396,35.9147551 L111.144,37.433102 Z M100.6236,60.3118571 C94.1436,63.3425306 86.4144,60.5201633 83.3916,54.0181224 C80.3712,47.5196939 83.184,39.7605918 89.664,36.7311224 C96.144,33.6980408 103.8708,36.5228163 106.89,43.0248571 C109.9164,49.5256939 107.1012,57.2763673 100.6236,60.3118571 L100.6236,60.3118571 Z" id="Shape" fill="#4A4A4A" sketch:type="MSShapeGroup"></path>
        </g>
    </g>
</svg>