<?xml version="1.0" encoding="UTF-8" standalone="no"?>
<svg width="270px" height="270px" viewBox="0 0 270 270" version="1.1" xmlns="http://www.w3.org/2000/svg" xmlns:xlink="http://www.w3.org/1999/xlink" xmlns:sketch="http://www.bohemiancoding.com/sketch/ns">
    <title>Slice 1</title>
    <description>Created with Sketch (http://www.bohemiancoding.com/sketch)</description>
    <defs></defs>
    <g id="Page-1" stroke="none" stroke-width="1" fill="none" fill-rule="evenodd" sketch:type="MSPage">
        <circle id="Oval-1" fill="#D8D8D8" sketch:type="MSShapeGroup" cx="106.5" cy="139.5" r="100.5"></circle>
        <path d="M178,211 L178,69 L266,140 L178,211 Z" id="Triangle-1" fill="#D8D8D8" sketch:type="MSShapeGroup"></path>
        <g id="Oval-2-+-1" sketch:type="MSLayerGroup" transform="translate(13.000000, 14.000000)">
            <path d="M32.5,65 C50.4492553,65 65,50.4492553 65,32.5 C65,14.5507447 50.4492553,0 32.5,0 C14.5507447,0 0,14.5507447 0,32.5 C0,50.4492553 14.5507447,65 32.5,65 Z" id="Oval-2" fill="#35AEDB" sketch:type="MSShapeGroup"></path>
            <text id="3" sketch:type="MSTextLayer" font-family="Helvetica Neue" font-size="38.8965517" font-weight="normal" fill="#FFFFFF">
                <tspan x="21" y="47">3</tspan>
            </text>
        </g>
        <g id="analytics" sketch:type="MSLayerGroup" transform="translate(47.000000, 90.000000)">
            <g id="analitics_1_" sketch:type="MSShapeGroup">
                <path d="M69.7208511,61.4427895 L102.761702,12.4195789 L102.746383,26.6656842 L109.657872,26.6656842 L109.673191,0.489368421 L83.6408511,0.368157895 L83.6408511,7.34678947 L97.8212766,7.35452632 L67.8978723,51.7407895 L32.7021277,27.4548421 L-0.438297872,69.2466842 L4.95914894,73.6076842 L34.0910638,36.868 L69.7208511,61.4427895 Z" id="Shape" fill="#FFFFFF"></path>
                <path d="M99.5089362,64.1068421 L94.6221277,69.0429474 L104.671489,79.2014211 L75.4655319,79.2014211 L38.6944681,53.6027895 L18.9787234,78.8584211 L24.4144681,83.1858947 L40.1038298,63.0701053 L73.3106383,86.1826316 L104.679149,86.1826316 L94.6093617,96.3462632 L99.493617,101.282368 L117.822979,82.7835789 L117.74383,82.7036316 L117.822979,82.6262632 L99.5089362,64.1068421 Z" id="Shape" fill="#4A4A4A"></path>
            </g>
        </g>
    </g>
</svg>